<svg id="logo_dk" xmlns="http://www.w3.org/2000/svg" xmlns:xlink="http://www.w3.org/1999/xlink" width="160" height="160" viewBox="0 0 160 160">
  <defs>
    <clipPath id="clip-path">
      <rect id="사각형_3" data-name="사각형 3" width="148" height="86" transform="translate(-0.4 -0.2)" fill="none"/>
    </clipPath>
  </defs>
  <g id="그룹_2" data-name="그룹 2" transform="translate(6.4 37.2)">
    <g id="그룹_1" data-name="그룹 1" clip-path="url(#clip-path)">
      <g id="그룹_3" data-name="그룹 3">
        <path id="패스_1" data-name="패스 1" d="M115.813,57.431l-2.643-.861A65.476,65.476,0,0,0,97.777,53.9a5.3,5.3,0,0,0-4.992,3.529,4.9,4.9,0,0,0,0,3.533h23.029a1.773,1.773,0,0,0,1.777-1.765c0-.975-.577-1.295-1.777-1.767" transform="translate(-55.504 -32.478)" fill="#5a4e2e"/>
        <rect id="사각형_2" data-name="사각형 2" width="30.415" height="18.435" transform="translate(4.023 9.271)" fill="#5a4e2e"/>
        <path id="패스_2" data-name="패스 2" d="M54.851,161.571A10.692,10.692,0,1,0,65.6,172.263a10.721,10.721,0,0,0-10.751-10.692m0,15.065a4.374,4.374,0,1,1,4.4-4.374,4.388,4.388,0,0,1-4.4,4.374" transform="translate(-26.475 -97.354)" fill="#5a4e2e"/>
        <path id="패스_3" data-name="패스 3" d="M288.408,161.571a10.692,10.692,0,1,0,10.75,10.692,10.723,10.723,0,0,0-10.75-10.692m0,15.065a4.374,4.374,0,1,1,4.4-4.374,4.387,4.387,0,0,1-4.4,4.374" transform="translate(-166.685 -97.354)" fill="#5a4e2e"/>
        <path id="패스_4" data-name="패스 4" d="M122.248,49.292s-2.109-9.026-5.062-13.8c-2.973-4.8-11.065-20.752-11.065-20.752h4.849v0a5.339,5.339,0,0,0,0-10.677v0l-9.476,0L101.872,0,78.9,6.623l2.234,4.062L95.944,6.268V61.524s-15.936-.8-30.368-.8c-11.569,0-8.19-23.364-6.36-26.218a12.674,12.674,0,0,1,.8-1.169V27.457H1.3v5.877H48.774C33.327,34.547,0,41.5,0,74.542H12.337a15.633,15.633,0,0,1,31.265,0h62.085a15.637,15.637,0,0,1,30.338-5.254H147.2s-6.436-20-24.951-20" fill="#5a4e2e"/>
      </g>
    </g>
  </g>
  <rect id="사각형_4" data-name="사각형 4" width="160" height="160" fill="none"/>
</svg>
